<svg width="706" height="303" viewBox="0 0 706 303" fill="none" xmlns="http://www.w3.org/2000/svg">
<rect x="0.5" y="0.5" width="705" height="302" stroke="none"/>
<path d="M131.9 100V116.6H96.5V201.2H75.4V116.6H40V100H131.9ZM167.3 100H193.6L241.6 201.1H216.5L206.2 178.9H152.5L142.8 201.2H119.9L167.3 100ZM198.8 162.3L179.4 117.7L159.9 162.3H198.8ZM270.8 100V144L309.7 100H335.4L294.8 145.7L340.5 201.1H313.1L270.8 148V201.1H249.6V100H270.8ZM347.9 100H369V161.7C369 178.8 378.7 188 394.7 188C410.1 188 420.4 180 420.4 161.1V100H441.5V161.1C441.5 184 432.4 204 391.8 204C368.9 204 347.8 191.4 347.8 165.1V100H347.9ZM493 100L528.4 182.3L562.7 100H597.6V201.1H577V114.2H576.4L540.4 201.1H514.7L477.6 114.2H477V201.1H458.1V100H493ZM618.8 100H639.9V201.1H618.8V100Z" fill="white"/>
</svg>
