<?xml version="1.0" encoding="utf-8"?>
<!-- Generator: Adobe Illustrator 19.0.0, SVG Export Plug-In . SVG Version: 6.00 Build 0)  -->
<svg version="1.1" id="layer" xmlns="http://www.w3.org/2000/svg" xmlns:xlink="http://www.w3.org/1999/xlink" x="0px" y="0px"
	 viewBox="-153 -46 652 652" style="enable-background:new -153 -46 652 652;" xml:space="preserve">
<style type="text/css">
	.st0{fill:#1D1D1D;}
</style>
<g>
	<path id="logo" class="st0" d="M-25.5,237.1v16.6h-35.4v84.6h-21.1v-84.6h-35.4v-16.6H-25.5z M9.9,237.1h26.3l48,101.1H59.1
		L48.8,316H-4.9l-9.7,22.3h-22.9L9.9,237.1L9.9,237.1z M41.4,299.4l-19.4-44.6L2.5,299.4H41.4z M113.4,237.1v44l38.9-44h25.7
		l-40.6,45.7l45.7,55.4h-27.4l-42.3-53.1v53.1H92.2V237.1H113.4z M190.5,237.1h21.1v61.7c0,17.1,9.7,26.3,25.7,26.3
		c15.4,0,25.7-8,25.7-26.9v-61.1h21.1v61.1c0,22.9-9.1,42.9-49.7,42.9c-22.9,0-44-12.6-44-38.9V237.1z M335.6,237.1l35.4,82.3
		l34.3-82.3h34.9v101.1h-20.6v-86.9h-0.6l-36,86.9h-25.7l-37.1-86.9h-0.6v86.9h-18.9V237.1H335.6z M461.4,237.1h21.1v101.1h-21.1
		V237.1z"/>
</g>
</svg>
